# xmcd
# Track frame offsets:
# 150
# 12750
# 26980
# 41807
# 60154
# 74456
# 84830
# 98208
# 112896
# 125687
# 137839
# 157843
# 171855
# 186524
# 199169
# 210981
# 223406
# 237048
# 253012
# 267804
#
# Disc length: 3719 seconds
# Revision: 5
# Processed by: cddbd v1.5.2PL0 Copyright (c) Steve Scherf et al.
# Submitted via: VisiTrax 2.11.3.279 - For more info visit www.synapsa.com
#
DISCID=1b0e8514
DTITLE=Slim Dusty - Sittin' On 80 Disc 1
DYEAR=2009
DGENRE=Australian Country
TTITLE0=Highway Fever
TTITLE1=Truckin's In My Blood
TTITLE2=Long Black Road
TTITLE3=Rolling Down The Road
TTITLE4=My Midnight Special (And Me)
TTITLE5=Roaring Through The Night
TTITLE6=My Dad Was A Roadtrain Man
TTITLE7=The Home Run
TTITLE8=From Here To There And Back
TTITLE9=Haulin' For The Double 'T'
TTITLE10=Long Distance Driving
TTITLE11=I'm Thankful
TTITLE12=Mechanised Swaggies
TTITLE13=The Angel Of Goulburn Hill
TTITLE14=Danger! Road Train
TTITLE15=Bent-Axle Bob
TTITLE16=Trucks On The Track
TTITLE17=Boomaroo Flyer
TTITLE18=Billinudgel
TTITLE19=You Just Can't Miss It, Mate
EXTD=2009 EMI Music Australia Pty Limited
EXTT0=
EXTT1=
EXTT2=
EXTT3=
EXTT4=
EXTT5=
EXTT6=
EXTT7=
EXTT8=
EXTT9=
EXTT10=
EXTT11=
EXTT12=
EXTT13=
EXTT14=
EXTT15=
EXTT16=
EXTT17=
EXTT18=
EXTT19=
PLAYORDER=
